<svg id="Ebene_1" data-name="Ebene 1" xmlns="http://www.w3.org/2000/svg" viewBox="0 0 157.94 42.52"><defs><style>.cls-1{fill:none;}.cls-2{clip-path:url(#clip-path);}.cls-3{fill:#001f47;}.cls-4{fill:#ea5b0c;}</style><clipPath id="clip-path" transform="translate(0)"><rect class="cls-1" width="158.74" height="42.52"/></clipPath></defs><title>logo</title><g class="cls-2"><path class="cls-3" d="M82.77,34.87c0,.81-.78,1.38-2.14,1.38-1,0-1.78-.42-1.78-1.21a1.43,1.43,0,0,1,.85-1.21h1.69c.93,0,1.38.4,1.38,1m-.45-5.39A1.45,1.45,0,0,1,80.69,31c-1,0-1.64-.53-1.64-1.51a1.52,1.52,0,0,1,1.68-1.54,1.43,1.43,0,0,1,1.59,1.54M84,34.72c0-1.19-.79-1.88-2.23-1.88H80.5c-.8,0-1.13-.15-1.13-.52a.58.58,0,0,1,.43-.54,5.08,5.08,0,0,0,.83.08c1.89,0,2.87-1,2.87-2.46a1.59,1.59,0,0,0-.56-1.29h1.12v-.94H81.82a4.36,4.36,0,0,0-1-.12,2.6,2.6,0,0,0-2.9,2.55,2,2,0,0,0,1,1.88,1.23,1.23,0,0,0-.74,1.1,1,1,0,0,0,.65,1,2,2,0,0,0-1.09,1.72c0,1.26,1.08,1.94,2.78,1.94,2.07,0,3.5-1.09,3.5-2.49m-7-7.67a2.09,2.09,0,0,0-2.27,1.68h0a8.42,8.42,0,0,0,.15-1.56H73.67v6.6h1.2V31.11c0-2.11.66-3.13,2.06-2.89Zm-5.56,6.72v-6.6H70.23v3.17c0,1.46-.79,2.56-1.88,2.56-.86,0-1.13-.54-1.13-1.47V27.17H66v4.62c0,1.17.46,2.11,2,2.11a2.4,2.4,0,0,0,2.32-1.53l0,0a9.07,9.07,0,0,0-.11,1.38Zm-8.33-3.51c0,1.9-.84,2.66-2.1,2.66a4.08,4.08,0,0,1-1.17-.16V30.57c0-1.15.61-2.54,1.81-2.54,1,0,1.46.81,1.46,2.23m1.25-.1c0-2-.88-3.11-2.43-3.11a2.25,2.25,0,0,0-2.18,1.47h0a6.07,6.07,0,0,0,.12-1.24v-3.2H58.63v9.52a8.12,8.12,0,0,0,2.27.27c2.12,0,3.44-1.39,3.44-3.7m-8,3.61V29.2c0-1.49-.72-2.17-2-2.17a2.45,2.45,0,0,0-2.25,1.51A1.66,1.66,0,0,0,50.33,27,2.44,2.44,0,0,0,48,28.56h0a8.19,8.19,0,0,0,.11-1.38H47v6.6h1.19V30.62C48.15,29.11,49,28,50,28s1.07.66,1.07,1.49v4.25h1.18V30.62c0-1.59.91-2.59,1.85-2.59s1.07.58,1.07,1.5v4.24ZM43.49,30.84a2,2,0,0,1-1.79,2.1.91.91,0,0,1-1-.91c0-.6.5-1.3,2.8-1.3Zm1.22,2.93c0-.57,0-1.28,0-1.9V29.24c0-1.32-.54-2.21-2.44-2.21a6.15,6.15,0,0,0-2.31.48l.12,1A4.12,4.12,0,0,1,42,28c1.09,0,1.45.49,1.45,1.41v.49c-2.5,0-4,.91-4,2.36a1.62,1.62,0,0,0,1.83,1.64,2.34,2.34,0,0,0,2.24-1.44h0a7.74,7.74,0,0,0-.07,1.32Zm-6.93,0v-9H36.56v3.8H32V24.8H30.77v9H32V29.64h4.57v4.13Z" transform="translate(0)"/><path class="cls-4" d="M157.94,20.5l-2.74-3.58,2.54-3h-1.45L154,16.8v-6h-1.2V20.5H154V17.1l2.44,3.4Zm-6.58-6.72a2.09,2.09,0,0,0-2.27,1.69h0a9.47,9.47,0,0,0,.14-1.57h-1.15v6.6h1.19V17.85c0-2.12.67-3.14,2.06-2.9Zm-6.26,2.5H142a1.66,1.66,0,0,1,1.6-1.62,1.44,1.44,0,0,1,1.48,1.62m1.22.28a2.5,2.5,0,0,0-2.64-2.78c-1.88,0-3,1.48-3,3.46,0,2.32,1.09,3.38,3.12,3.38a5.79,5.79,0,0,0,2.23-.41l-.11-1a4.74,4.74,0,0,1-1.92.41c-1.41,0-2.14-.75-2.09-2.52h4.32c0-.23,0-.41,0-.57M140,13.9h-1.27l-1.06,3.56c-.2.66-.32,1.14-.45,1.7h0c-.12-.5-.24-.93-.51-1.75L135.6,13.9h-1.28l-1.12,3.55c-.18.54-.32,1.11-.46,1.7h0c-.13-.52-.3-1.12-.48-1.73l-1-3.52h-1.31l2,6.6h1.33l1.1-3.54c.17-.56.33-1.08.47-1.66h0c.12.46.24.9.37,1.31l1.32,3.89h1.34Zm-10.95,4.62c0-2.21-3.08-1.43-3.08-2.88,0-.57.44-.94,1.31-.94a4.57,4.57,0,0,1,1.33.21l0-1a6.75,6.75,0,0,0-1.26-.14c-1.73,0-2.64.87-2.64,2,0,2.33,3.06,1.42,3.06,2.9,0,.61-.59,1-1.47,1a5,5,0,0,1-1.45-.23l0,1.06a7.53,7.53,0,0,0,1.4.12c1.75,0,2.81-.9,2.81-2.1m-6.72,3.08c0,.81-.78,1.39-2.14,1.39-1,0-1.78-.43-1.78-1.21a1.4,1.4,0,0,1,.85-1.21H121c.93,0,1.38.4,1.38,1m-.45-5.39a1.46,1.46,0,0,1-1.63,1.52,1.43,1.43,0,0,1-1.64-1.52,1.52,1.52,0,0,1,1.68-1.54,1.43,1.43,0,0,1,1.59,1.54m1.63,5.25c0-1.2-.79-1.89-2.23-1.89H120.1c-.8,0-1.13-.14-1.13-.52a.59.59,0,0,1,.43-.54,5.08,5.08,0,0,0,.83.08c1.89,0,2.87-1,2.87-2.46a1.6,1.6,0,0,0-.56-1.29h1.12V13.9h-2.24a4.42,4.42,0,0,0-1-.12,2.61,2.61,0,0,0-2.9,2.55,2,2,0,0,0,1,1.89,1.22,1.22,0,0,0-.74,1.1,1.05,1.05,0,0,0,.65,1A2,2,0,0,0,117.27,22c0,1.26,1.08,1.94,2.78,1.94,2.07,0,3.5-1.09,3.5-2.48m-7.94-1V15.88c0-1.17-.48-2.11-2-2.11a2.42,2.42,0,0,0-2.33,1.53l0,0a8,8,0,0,0,.11-1.38h-1.16v6.6h1.19V17.33c0-1.46.79-2.57,1.88-2.57.87,0,1.13.55,1.13,1.48V20.5Zm-7.65,0V13.9h-1.18v3.18c0,1.46-.8,2.56-1.89,2.56-.86,0-1.12-.55-1.12-1.48V13.9h-1.19v4.62c0,1.17.47,2.11,2,2.11a2.43,2.43,0,0,0,2.33-1.52h0a10.8,10.8,0,0,0-.1,1.38Zm-6.78-6.72a2.1,2.1,0,0,0-2.28,1.69h0A9.47,9.47,0,0,0,99,13.9H97.87v6.6h1.19V17.85c0-2.12.67-3.14,2.06-2.9Zm-6.27,2.5H91.83a1.66,1.66,0,0,1,1.6-1.62,1.44,1.44,0,0,1,1.48,1.62m1.22.28a2.49,2.49,0,0,0-2.64-2.78c-1.88,0-2.95,1.48-2.95,3.46,0,2.32,1.09,3.38,3.12,3.38a5.79,5.79,0,0,0,2.23-.41l-.11-1a4.7,4.7,0,0,1-1.92.41c-1.41,0-2.14-.75-2.09-2.52h4.32a4.31,4.31,0,0,0,0-.57m-8.46.53c0,1.15-.61,2.55-1.81,2.55-1,0-1.46-.81-1.46-2.23,0-1.9.84-2.66,2.1-2.66a4.42,4.42,0,0,1,1.17.15Zm1.2,3.41V10.81h-1.2v3.07a11.21,11.21,0,0,0-1.12-.07c-2.08,0-3.41,1.39-3.41,3.7,0,1.93.81,3.11,2.43,3.11a2.33,2.33,0,0,0,2.22-1.47h0a7.73,7.73,0,0,0-.11,1.34Zm-6.42-6.72a2.09,2.09,0,0,0-2.27,1.69h0a8.59,8.59,0,0,0,.15-1.57H79.14v6.6h1.2V17.85c0-2.12.66-3.14,2.06-2.9Zm-8.62-2a.7.7,0,0,0-.7-.72.72.72,0,0,0-.72.72.7.7,0,0,0,.72.7.68.68,0,0,0,.7-.7m2.55,0a.7.7,0,0,0-.7-.72.72.72,0,0,0-.72.72.7.7,0,0,0,.72.7.68.68,0,0,0,.7-.7m-.14,5.34c0,1.68-.85,2.45-1.84,2.45-1.21,0-1.86-.87-1.86-2.47s.91-2.36,1.86-2.36c1.22,0,1.84.87,1.84,2.38m1.24-.07c0-2.38-1.28-3.31-3-3.31a3.21,3.21,0,0,0-3.21,3.48c0,2.33,1.16,3.36,3,3.36a3.26,3.26,0,0,0,3.22-3.53m-6-6.24a4.92,4.92,0,0,0-1.09-.12c-1.64,0-2.53.86-2.53,2.68v.49H66.46v.93h1.36V20.5H69V14.83h1.83V13.9H69v-.5c0-1.17.41-1.7,1.36-1.7a3.21,3.21,0,0,1,1,.14Zm-5.73,7.67c0-2.21-3.09-1.43-3.09-2.88,0-.57.44-.94,1.32-.94a4.57,4.57,0,0,1,1.33.21l0-1A6.66,6.66,0,0,0,64,13.78c-1.72,0-2.64.87-2.64,2,0,2.33,3.07,1.42,3.07,2.9,0,.61-.6,1-1.48,1a5,5,0,0,1-1.44-.23l0,1.06a7.5,7.5,0,0,0,1.39.12c1.75,0,2.82-.9,2.82-2.1m-4.33-7.67a5,5,0,0,0-1.09-.12c-1.65,0-2.54.86-2.54,2.68v.49H56.4v.93h1.35V20.5H59V14.83h1.83V13.9H59v-.5c0-1.17.41-1.7,1.35-1.7a3.16,3.16,0,0,1,1,.14Zm-6.2,9.65V13.9H54v3.18c0,1.46-.79,2.56-1.88,2.56-.87,0-1.13-.55-1.13-1.48V13.9H49.8v4.62c0,1.17.46,2.11,2,2.11a2.42,2.42,0,0,0,2.32-1.52h0A9.27,9.27,0,0,0,54,20.5Zm-6.79-6.72a2.09,2.09,0,0,0-2.27,1.69h0a8.59,8.59,0,0,0,.15-1.57H45.08v6.6h1.2V17.85c0-2.12.66-3.14,2.06-2.9Zm-6.27,2.5H39a1.66,1.66,0,0,1,1.61-1.62,1.43,1.43,0,0,1,1.47,1.62m1.22.28a2.49,2.49,0,0,0-2.64-2.78c-1.87,0-3,1.48-3,3.46,0,2.32,1.09,3.38,3.12,3.38a5.72,5.72,0,0,0,2.23-.41l-.1-1a4.75,4.75,0,0,1-1.93.41c-1.41,0-2.14-.75-2.08-2.52H43.3a4.31,4.31,0,0,0,0-.57m-8.1,1.3c0,1-.65,1.69-2.11,1.69A7.09,7.09,0,0,1,32,19.48V16.35c.21,0,.68,0,.83,0,1.39,0,2.42.37,2.42,1.53m-.18-4c0,1-.79,1.57-2.26,1.57-.32,0-.56,0-.81,0V12.51c.36,0,.79,0,1.21,0,1.44,0,1.86.57,1.86,1.37m1.46,4a2,2,0,0,0-1.81-2.06v0a2.21,2.21,0,0,0,1.61-2.08c0-1.34-1-2.15-2.91-2.15-1.08,0-2,0-2.64,0v9l2.28,0c2.8,0,3.47-1.64,3.47-2.72" transform="translate(0)"/><path class="cls-4" d="M21.81,15.62a37.3,37.3,0,0,0-1.39-5.48A36.53,36.53,0,0,0,18.2,4.85,41.42,41.42,0,0,0,15.26,0H10.62A50.11,50.11,0,0,1,14.9,10.67,39.87,39.87,0,0,1,16.36,21,40.48,40.48,0,0,1,16,26.59a44.44,44.44,0,0,1-1.12,5.58A44.79,44.79,0,0,1,13,37.55a41.57,41.57,0,0,1-2.41,5h4.64a27.11,27.11,0,0,0,2.91-4.62,36,36,0,0,0,2.2-5.35,41.13,41.13,0,0,0,1.42-5.74,35,35,0,0,0,.5-5.81,31.17,31.17,0,0,0-.48-5.38m-15-4.45a4.35,4.35,0,0,0-3.11-.94c-2.49,0-3.73,1.33-3.73,4a3.86,3.86,0,0,0,1,2.92A4.29,4.29,0,0,0,4,18Q7.8,18,7.8,14.11a3.94,3.94,0,0,0-1-2.94" transform="translate(0)"/></g><rect class="cls-3" x="0.49" y="27.02" width="6.76" height="6.76"/></svg>